<?xml version="1.0"?>
<svg xmlns="http://www.w3.org/2000/svg" xmlns:xlink="http://www.w3.org/1999/xlink" xmlns:svgjs="http://svgjs.com/svgjs" version="1.1" width="111" height="111" x="0" y="0" viewBox="0 0 64 64" style="enable-background:new 0 0 512 512" xml:space="preserve" class=""><g><path xmlns="http://www.w3.org/2000/svg" d="m61 37h-3v-2.096c1.713-.38 3-1.907 3-3.732 0-1.022-.398-1.984-1.121-2.707l-2.879-2.879-2.879 2.879c-.723.723-1.121 1.684-1.121 2.707 0 1.825 1.287 3.352 3 3.732v2.096h-5v-33c0-1.654-1.346-3-3-3h-32c-1.654 0-3 1.346-3 3v33h-5v-2.096c1.713-.38 3-1.907 3-3.732 0-1.022-.398-1.984-1.121-2.707l-2.879-2.879-2.879 2.879c-.723.723-1.121 1.684-1.121 2.707 0 1.825 1.287 3.352 3 3.732v2.096h-3c-1.103 0-2 .897-2 2v20c0 1.103.897 2 2 2h7.017c-.009.33-.017.66-.017 1v1h10c1.103 0 2-.897 2-2v-4h20v4c0 1.103.897 2 2 2h10v-1c0-.34-.008-.67-.017-1h7.017c1.103 0 2-.897 2-2v-20c0-1.103-.897-2-2-2zm-6-5.828c0-.481.195-.953.535-1.293l1.465-1.465 1.465 1.465c.34.34.535.811.535 1.293 0 1.008-.82 1.828-1.828 1.828h-.344c-1.008 0-1.828-.82-1.828-1.828zm-50 0c0-.481.195-.953.535-1.293l1.465-1.465 1.465 1.465c.34.34.535.811.535 1.293 0 1.008-.82 1.828-1.828 1.828h-.344c-1.008 0-1.828-.82-1.828-1.828zm6 17.828v-4h42l.002 4zm4-33.586 12.414-12.414h4.172l-16.586 16.586zm4-6.828v-1.586h1.586zm0 9.828 5.991-5.991c-.027.033-.058.061-.084.094-1.23 1.536-1.907 3.466-1.907 5.435 0 1.725.699 3.412 1.918 4.631l1.318 1.318c.376 1.311 1.187 2.437 2.267 3.216l-.327 1.31-1.769.442c-1.257.313-2.403.963-3.316 1.877-1.349 1.349-2.091 3.141-2.091 5.047v3.207h-2zm9.813 11.914 1.617 1.078-1.065 1.065-.83-2.074zm6.374 0 .277.069-.83 2.074-1.065-1.065zm-1.328-1.519-1.859 1.24-1.859-1.239.199-.797c.528.152 1.084.239 1.66.239s1.132-.086 1.66-.239zm-1.859-2.558c-2.206 0-4-1.794-4-4l-.001-2.279c1.473-.49 2.845-1.29 4.001-2.329 1.156 1.039 2.528 1.839 4.001 2.329h-.001v2.279c0 2.206-1.794 4-4 4zm4.632-8.178c-1.367-.455-2.63-1.235-3.651-2.256l-.981-.98-.98.98c-1.021 1.021-2.284 1.801-3.653 2.257-.818.274-1.367 1.036-1.367 1.898v.791c-.63-.799-1-1.789-1-2.811 0-1.517.521-3.003 1.469-4.186 1.278-1.599 3.186-2.516 5.232-2.516h.598c2.047 0 3.954.917 5.233 2.516.947 1.183 1.468 2.67 1.468 4.186 0 1.021-.37 2.012-1 2.811v-.791c0-.862-.549-1.624-1.368-1.899zm-13.632 17.72c0-1.372.534-2.662 1.506-3.633.58-.582 1.297-1.004 2.08-1.253l2.049 5.123 2.365-2.365v3.335h2v-3.335l2.365 2.365 2.049-5.123c.783.249 1.499.67 2.081 1.253.971.971 1.505 2.261 1.505 3.633v3.207h-18zm17.91-5.047c-.914-.914-2.061-1.563-3.317-1.877l-1.769-.442-.327-1.31c1.08-.779 1.891-1.904 2.267-3.216l1.318-1.318c1.219-1.219 1.918-2.906 1.918-4.631 0-1.969-.677-3.899-1.906-5.436-1.661-2.075-4.138-3.266-6.795-3.266h-.598c-2.044 0-3.978.711-5.519 1.981l4.232-4.231h14.586v32h-2v-3.207c0-1.906-.742-3.698-2.09-5.047zm8.09-26.746v38c0 .552-.448 1-1 1h-32c-.552 0-1-.448-1-1v-19.586l2-2v18.586c0 1.103.897 2 2 2h26c1.103 0 2-.897 2-2v-32c0-1.103-.897-2-2-2h-12.586l2-2h13.586c.552 0 1 .448 1 1zm-33-1h8.586l-2 2h-3.586c-1.103 0-2 .897-2 2v3.586l-2 2v-8.586c0-.552.448-1 1-1zm-13 56v-20h10v3c0 .352.072.686.184 1h-2.184c-1.103 0-2 .897-2 2v4c0 1.103.897 2 2 2h.603c-.484 1.57-1.201 4.397-1.482 8zm41 2v-4c0-1.103-.897-2-2-2h-20c-1.103 0-2 .897-2 2v4h-7.986c.136-4.842 1.219-8.579 1.693-10h36.587c.474 1.421 1.557 5.158 1.693 10zm17-2h-7.121c-.281-3.603-.998-6.43-1.482-8h.603c1.103 0 2-.897 2-2v-4c0-1.103-.897-2-2-2h-2.184c.112-.314.184-.648.184-1v-3h10z" fill="#ddd4d4" data-original="#000000" style="" class=""/></g></svg>
