<?xml version="1.0"?>
<svg xmlns="http://www.w3.org/2000/svg" xmlns:xlink="http://www.w3.org/1999/xlink" xmlns:svgjs="http://svgjs.com/svgjs" version="1.1" width="112" height="112" x="0" y="0" viewBox="0 0 512 511" style="enable-background:new 0 0 512 512" xml:space="preserve"><g><path xmlns="http://www.w3.org/2000/svg" d="m497 144.5c8.285156 0 15-6.714844 15-15v-60c0-8.285156-6.714844-15-15-15h-39v-39c0-8.285156-6.714844-15-15-15h-60c-8.285156 0-15 6.714844-15 15v39h-39c-8.285156 0-15 6.714844-15 15v60c0 8.285156 6.714844 15 15 15h39v98.925781c-17.347656-44.949219-61.007812-76.925781-112-76.925781s-94.652344 31.976562-112 76.925781v-98.925781h39c8.285156 0 15-6.714844 15-15v-60c0-8.285156-6.714844-15-15-15h-39v-39c0-8.285156-6.714844-15-15-15h-60c-8.285156 0-15 6.714844-15 15v39h-39c-8.285156 0-15 6.714844-15 15v60c0 8.285156 6.714844 15 15 15h39v134h-39c-8.285156 0-15 6.714844-15 15s6.714844 15 15 15h121v136h-33c-8.285156 0-15 6.714844-15 15s6.714844 15 15 15h306c8.285156 0 15-6.714844 15-15s-6.714844-15-15-15h-33v-136h121c8.285156 0 15-6.714844 15-15s-6.714844-15-15-15h-39v-134zm-413 134v-149c0-8.285156-6.714844-15-15-15h-39v-30h39c8.285156 0 15-6.714844 15-15v-39h30v39c0 8.285156 6.714844 15 15 15h39v30h-39c-8.285156 0-15 6.714844-15 15v149zm82 166v-150.988281c0-.003907 0-.007813 0-.011719s0-7 0-7c0-49.625 40.375-90 90-90s90 40.375 90 90v158zm232-166v-149c0-8.285156-6.714844-15-15-15h-39v-30h39c8.285156 0 15-6.714844 15-15v-39h30v39c0 8.285156 6.714844 15 15 15h39v30h-39c-8.285156 0-15 6.714844-15 15v149zm0 0" fill="#ddd4d4" data-original="#000000" style=""/><path xmlns="http://www.w3.org/2000/svg" d="m288 266.5h-17v-13c0-8.285156-6.714844-15-15-15s-15 6.714844-15 15v13h-17c-8.285156 0-15 6.714844-15 15s6.714844 15 15 15h17v43c0 8.285156 6.714844 15 15 15s15-6.714844 15-15v-43h17c8.285156 0 15-6.714844 15-15s-6.714844-15-15-15zm0 0" fill="#ddd4d4" data-original="#000000" style=""/></g></svg>
