<?xml version="1.0"?>
<svg xmlns="http://www.w3.org/2000/svg" xmlns:xlink="http://www.w3.org/1999/xlink" xmlns:svgjs="http://svgjs.com/svgjs" version="1.1" width="512" height="512" x="0" y="0" viewBox="0 0 512.002 512.002" style="enable-background:new 0 0 512 512" xml:space="preserve" class=""><g>
<g xmlns="http://www.w3.org/2000/svg">
	<g>
		<path d="M511.87,277.658c-0.502-3.069-2.404-5.73-5.146-7.199c-6.314-3.382-13.031-5.453-19.839-6.24    c0.583-0.384,1.159-0.779,1.718-1.199c13.327-9.998,15.72-26.867,17.831-41.75c1.06-7.471,2.061-14.527,4.241-19.608    c1.226-2.858,1.053-6.124-0.47-8.837c-1.522-2.712-4.221-4.562-7.299-5.004c-7.087-1.018-14.103-0.668-20.766,0.919    c0.415-0.558,0.813-1.128,1.194-1.711c9.104-13.952,5.584-30.622,2.478-45.329c-1.559-7.383-3.032-14.356-2.721-19.876    c0.175-3.105-1.105-6.115-3.464-8.144c-2.358-2.029-5.531-2.846-8.569-2.207c-7.007,1.467-13.481,4.196-19.2,7.966    c0.199-0.667,0.378-1.339,0.537-2.017c3.782-16.225-5.228-30.686-13.177-43.443c-3.99-6.404-7.76-12.453-9.355-17.746    c-0.897-2.979-3.13-5.369-6.04-6.468c-2.909-1.101-6.165-0.783-8.808,0.858c-10.972,6.81-18.924,16.872-23.011,28.574    c-5.076-6.513-11.734-12.73-19.819-18.391c-21.197-14.843-52.673-25.129-75.217-14.637c-2.819,1.312-4.869,3.861-5.543,6.897    c-0.675,3.036,0.102,6.214,2.101,8.597c2.54,3.027,5.53,7.241,8.992,12.121l1.824,2.568c3.202,4.499,9.444,5.551,13.946,2.347    c4.499-3.203,5.55-9.446,2.347-13.946l-1.806-2.542c-0.076-0.107-0.151-0.214-0.228-0.32c12.587,0.179,28.387,5.688,42.111,15.298    c12.29,8.605,20.391,18.871,22.421,28.01c-1.955,0.578-3.887,0.987-5.782,1.224c-5.076,0.633-8.779,4.969-8.755,9.96    c-17.22,4.825-30.841,17.317-37.033,34.285c-1.066,2.922-0.713,6.174,0.957,8.798s4.466,4.321,7.564,4.593    c5.508,0.482,12.198,2.937,19.282,5.536c1.501,0.551,3.025,1.108,4.565,1.658c-1.946,1.747-3.791,3.642-5.513,5.691    c-2.001,2.381-2.78,5.558-2.108,8.595s2.719,5.589,5.538,6.903c5.011,2.336,10.458,6.932,16.227,11.797    c1.222,1.031,2.462,2.076,3.721,3.119c-2.426,0.976-4.807,2.125-7.125,3.461c-2.695,1.554-4.515,4.271-4.922,7.355    s0.644,6.182,2.843,8.381c3.909,3.909,7.457,10.091,11.213,16.635c0.796,1.387,1.604,2.793,2.431,4.205    c-2.613,0.087-5.244,0.353-7.879,0.816c-3.064,0.537-5.703,2.47-7.141,5.229c-1.438,2.758-1.51,6.028-0.195,8.847    c2.337,5.011,3.556,12.033,4.847,19.468c0.273,1.575,0.552,3.173,0.846,4.782c-2.485-0.812-5.049-1.462-7.684-1.929    c-3.063-0.542-6.204,0.371-8.498,2.471c-2.294,2.101-3.48,5.149-3.209,8.248c0.481,5.507-0.773,12.523-2.104,19.95    c-0.282,1.573-0.567,3.17-0.841,4.782c-2.058-1.613-4.244-3.1-6.56-4.44c-2.692-1.557-5.958-1.771-8.83-0.584    c-2.875,1.188-5.032,3.647-5.837,6.651c-1.431,5.341-5.011,11.504-8.8,18.028c-0.803,1.383-1.617,2.787-2.427,4.208    c-1.382-2.219-2.928-4.365-4.646-6.416c-1.997-2.385-4.981-3.704-8.098-3.569c-3.107,0.134-5.976,1.706-7.76,4.255    c-3.171,4.528-8.643,9.096-14.436,13.931c-11.54,9.633-24.62,20.55-26.101,37.145c-0.534,5.985,0.526,12.049,3.186,18.286h-16.141    c2.659-6.237,3.719-12.301,3.186-18.286c-1.48-16.595-14.561-27.512-26.101-37.145c-5.793-4.835-11.265-9.402-14.436-13.931    c-1.784-2.549-4.652-4.121-7.76-4.255c-3.103-0.151-6.101,1.184-8.098,3.569c-1.718,2.051-3.264,4.197-4.646,6.416    c-0.809-1.422-1.624-2.825-2.427-4.208c-3.789-6.524-7.369-12.688-8.8-18.028c-0.805-3.004-2.962-5.463-5.836-6.651    c-2.875-1.19-6.139-0.973-8.831,0.584c-2.316,1.34-4.503,2.827-6.561,4.44c-0.274-1.613-0.559-3.21-0.841-4.784    c-1.329-7.427-2.585-14.442-2.104-19.95c0.271-3.099-0.915-6.146-3.209-8.247c-2.295-2.101-5.434-3.011-8.498-2.471    c-2.634,0.467-5.198,1.117-7.683,1.928c0.294-1.609,0.572-3.207,0.846-4.782c1.291-7.435,2.51-14.457,4.847-19.468    c1.314-2.818,1.242-6.089-0.195-8.847c-1.438-2.759-4.076-4.691-7.141-5.229c-2.635-0.462-5.267-0.728-7.88-0.815    c0.827-1.412,1.635-2.819,2.432-4.207c3.756-6.544,7.303-12.725,11.212-16.634c2.199-2.2,3.25-5.297,2.843-8.381    s-2.227-5.802-4.922-7.355c-2.318-1.336-4.699-2.485-7.124-3.461c1.259-1.043,2.499-2.088,3.721-3.119    c5.769-4.865,11.216-9.461,16.227-11.797c2.819-1.314,4.866-3.866,5.538-6.903s-0.107-6.214-2.108-8.595    c-1.722-2.048-3.567-3.944-5.513-5.691c1.54-0.55,3.064-1.107,4.565-1.658c7.084-2.6,13.774-5.054,19.282-5.536    c3.099-0.271,5.895-1.969,7.564-4.593s2.023-5.876,0.957-8.798c-4.291-11.758-12.149-21.366-22.3-27.764    c5.325-2.109,10.589-5.084,15.779-8.943C188.87,102.84,200.3,86.73,209.483,73.786c3.462-4.88,6.452-9.095,8.992-12.122    c2-2.383,2.776-5.56,2.102-8.597c-0.674-3.036-2.724-5.586-5.543-6.897c-5.727-2.664-12.335-4.093-19.643-4.246    c-0.071-0.001-0.142-0.002-0.213-0.002c-5.426,0-9.88,4.341-9.994,9.791c-0.104,5.014,3.499,9.242,8.296,10.064    c-0.103,0.145-0.205,0.29-0.309,0.437c-19.143,26.981-38.528,50.444-64.318,42.964c0.699-3.171,2.146-6.491,4.328-9.928    c2.961-4.662,1.582-10.842-3.08-13.803c-2.981-1.894-6.58-2.005-9.564-0.625c-3.901-12.394-12.073-23.075-23.55-30.198    c-2.643-1.642-5.898-1.96-8.808-0.858c-2.91,1.099-5.143,3.489-6.04,6.468c-1.596,5.293-5.365,11.342-9.355,17.746    c-7.949,12.758-16.959,27.219-13.177,43.443c0.158,0.678,0.338,1.35,0.537,2.017c-5.719-3.77-12.193-6.499-19.2-7.966    c-3.04-0.639-6.211,0.179-8.569,2.206c-2.358,2.028-3.639,5.039-3.464,8.145c0.311,5.52-1.162,12.492-2.721,19.874    c-3.106,14.708-6.627,31.378,2.477,45.331c0.38,0.583,0.778,1.152,1.193,1.71c-6.662-1.587-13.678-1.936-20.765-0.918    c-3.078,0.442-5.776,2.292-7.299,5.004c-1.522,2.713-1.695,5.979-0.469,8.838c2.18,5.081,3.181,12.137,4.241,19.608    c2.111,14.883,4.505,31.752,17.831,41.749c0.559,0.419,1.134,0.814,1.717,1.198c-6.808,0.787-13.524,2.858-19.838,6.24    c-2.742,1.469-4.645,4.13-5.146,7.199c-0.503,3.069,0.451,6.198,2.581,8.465c3.786,4.028,7.141,10.317,10.692,16.975    c7.074,13.264,15.092,28.296,31.034,33.132c0.671,0.204,1.352,0.373,2.034,0.535c-6.132,3.067-11.739,7.312-16.519,12.653    c-2.074,2.318-2.951,5.469-2.374,8.525s2.544,5.67,5.321,7.071c4.936,2.49,10.238,7.253,15.852,12.294    c10.764,9.666,22.905,20.571,38.631,20.571c0.615,0,1.239-0.017,1.865-0.051c0.695-0.038,1.388-0.098,2.08-0.178    c-4.706,4.977-8.518,10.879-11.179,17.525c-1.156,2.888-0.903,6.148,0.685,8.823c1.588,2.674,4.33,4.458,7.419,4.825    c5.489,0.652,12.101,3.313,19.101,6.131c9.738,3.92,20.384,8.204,31.139,8.204c4.646,0,9.312-0.799,13.933-2.772    c0.64-0.273,1.271-0.567,1.893-0.879c-2.72,6.286-4.283,13.135-4.511,20.291c-0.099,3.108,1.254,6.087,3.661,8.057    c1.805,1.478,4.048,2.262,6.334,2.262c0.763,0,1.53-0.087,2.287-0.265c5.382-1.266,12.504-1.026,20.047-0.771    c15.023,0.506,32.052,1.076,44.211-10.311c7.49-7.015,11.688-17.274,12.798-31.248c0.79,0.01,1.578,0.03,2.37,0.03h28.971    c0.792,0,1.58-0.02,2.37-0.03c1.11,13.973,5.308,24.233,12.798,31.248c12.159,11.388,29.187,10.817,44.211,10.311    c7.541-0.255,14.664-0.493,20.047,0.771c0.757,0.178,1.524,0.265,2.287,0.265c2.285,0,4.529-0.784,6.334-2.262    c2.407-1.97,3.76-4.948,3.661-8.057c-0.228-7.155-1.791-14.004-4.511-20.291c0.622,0.312,1.253,0.605,1.893,0.879    c4.622,1.974,9.286,2.772,13.933,2.772c10.754,0,21.401-4.285,31.139-8.204c7-2.817,13.611-5.479,19.101-6.131    c3.089-0.367,5.831-2.151,7.419-4.825c1.588-2.675,1.841-5.936,0.685-8.823c-2.662-6.646-6.473-12.548-11.179-17.525    c0.691,0.08,1.385,0.14,2.08,0.178c0.628,0.034,1.249,0.051,1.865,0.051c15.725,0,27.868-10.906,38.631-20.571    c5.613-5.042,10.916-9.804,15.852-12.294c2.776-1.401,4.743-4.015,5.32-7.071s-0.3-6.207-2.374-8.525    c-4.779-5.34-10.385-9.585-16.516-12.653c0.682-0.162,1.362-0.331,2.033-0.535c15.942-4.836,23.96-19.868,31.034-33.132    c3.552-6.657,6.906-12.946,10.692-16.975C511.419,283.856,512.373,280.727,511.87,277.658z M407.165,177.802    c10.759,1.897,19.717,8.258,24.873,17.416c-5.21,5.16-10.092,7.962-14.559,8.345c-8.344,0.722-17.163-6.73-26.509-14.614    c-2.71-2.286-5.459-4.604-8.279-6.782C389.877,177.878,398.464,176.267,407.165,177.802z M420.182,228.298    c9.415,5.436,15.64,14.418,17.386,24.725c-0.004,0.056-0.01,0.111-0.015,0.166c-6.64,3.051-12.173,4.008-16.491,2.844    c-8.077-2.179-13.825-12.195-19.911-22.8c-1.766-3.075-3.555-6.193-5.46-9.204C403.908,222.457,412.533,223.881,420.182,228.298z     M415.144,280.201c6.974,8.313,9.753,18.857,7.892,29.12c-0.032,0.071-0.067,0.141-0.099,0.213    c-7.276,0.592-12.795-0.4-16.45-2.97c-6.845-4.81-8.82-16.188-10.912-28.234c-0.607-3.493-1.223-7.036-1.983-10.517    C401.852,269.148,409.468,273.436,415.144,280.201z M486.632,218.46c-1.717,12.105-3.339,23.54-10.031,28.561    c-3.586,2.69-9.098,3.851-16.417,3.477c-2.257-10.265,0.187-20.977,6.946-29.559c5.464-6.938,12.941-11.461,21.157-13.051    C487.635,211.39,487.13,214.951,486.632,218.46z M464.182,135.329c0.585,3.515,1.328,7.033,2.061,10.502    c2.526,11.963,4.913,23.263,0.342,30.269c-2.45,3.754-7.228,6.73-14.237,8.881c-5.632-8.873-7-19.775-3.584-30.151    C451.525,146.442,457.007,139.634,464.182,135.329z M416.715,75.392c1.752,3.103,3.653,6.154,5.528,9.163    c6.466,10.378,12.573,20.179,10.674,28.326c-1.019,4.366-4.489,8.798-10.342,13.216c-8.326-6.412-13.341-16.188-13.68-27.107    C408.622,90.162,411.443,81.891,416.715,75.392z M356.157,147.276c5.287-6.487,12.809-10.938,21.505-12.472    c10.73-1.892,21.288,1,29.257,7.799c0.02,0.028,0.04,0.057,0.06,0.086c-3.128,6.615-6.753,10.91-10.814,12.795    c-7.59,3.521-18.431-0.456-29.909-4.667C362.928,149.595,359.553,148.357,356.157,147.276z M374.907,318.798    c0.625-3.49,1.258-7.03,1.733-10.562c7.307,4.08,12.997,10.715,16.017,19.013c3.676,10.101,2.73,20.848-2.4,29.806    c-0.13,0.133-0.259,0.266-0.389,0.399c-6.993-1.931-11.815-4.741-14.363-8.392C370.719,342.201,372.753,330.833,374.907,318.798z     M341.646,349.757c1.781-3.065,3.587-6.175,5.241-9.33c5.471,6.333,8.548,14.513,8.548,23.344    c0,10.845-4.645,20.704-12.662,27.372c-0.075,0.036-0.152,0.07-0.228,0.106c-5.951-4.222-9.541-8.529-10.689-12.848    C329.706,370.317,335.506,360.33,341.646,349.757z M280.806,391.042c0.744-8.333,9.609-15.733,18.996-23.568    c2.722-2.271,5.482-4.575,8.116-6.975c2.975,7.821,3.068,16.562,0.048,24.859c-3.716,10.209-11.472,17.895-21.309,21.409    c-0.063,0.006-0.127,0.011-0.19,0.017C282.312,400.776,280.409,395.497,280.806,391.042z M105.515,306.564    c-3.656,2.569-9.173,3.559-16.45,2.97c-0.032-0.071-0.067-0.141-0.099-0.213c-1.861-10.264,0.917-20.807,7.892-29.12    c5.677-6.766,13.291-11.054,21.554-12.388c-0.761,3.48-1.376,7.023-1.983,10.517C114.336,290.375,112.36,301.754,105.515,306.564z     M110.849,233.232c-6.086,10.605-11.834,20.621-19.911,22.801c-4.318,1.165-9.849,0.207-16.491-2.844    c-0.004-0.055-0.01-0.11-0.015-0.166c1.747-10.307,7.972-19.289,17.387-24.725c7.646-4.416,16.266-5.842,24.489-4.27    C114.404,227.039,112.614,230.158,110.849,233.232z M94.522,203.563c-4.467-0.383-9.349-3.185-14.559-8.345    c5.156-9.158,14.114-15.519,24.873-17.416c8.702-1.532,17.288,0.077,24.474,4.364c-2.82,2.178-5.569,4.496-8.279,6.782    C111.685,196.831,102.85,204.287,94.522,203.563z M204.083,360.499c2.634,2.399,5.395,4.703,8.116,6.975    c9.387,7.835,18.252,15.235,18.996,23.568c0.397,4.455-1.505,9.734-5.661,15.742c-0.063-0.006-0.127-0.011-0.19-0.017    c-9.837-3.514-17.594-11.2-21.309-21.409C201.014,377.061,201.108,368.321,204.083,360.499z M165.114,340.426    c1.654,3.156,3.46,6.266,5.241,9.331c6.141,10.573,11.94,20.56,9.789,28.644c-1.149,4.319-4.737,8.626-10.689,12.848    c-0.076-0.036-0.152-0.07-0.228-0.106c-8.017-6.667-12.662-16.526-12.662-27.372C156.566,354.939,159.642,346.76,165.114,340.426z     M137.094,318.797c2.155,12.035,4.189,23.403-0.597,30.265c-2.547,3.651-7.37,6.462-14.363,8.392    c-0.13-0.132-0.259-0.266-0.389-0.399c-5.13-8.958-6.077-19.706-2.4-29.806c3.02-8.298,8.709-14.933,16.016-19.013    C135.836,311.768,136.47,315.308,137.094,318.797z M145.746,150.817c-11.479,4.211-22.322,8.188-29.909,4.667    c-4.061-1.885-7.686-6.181-10.814-12.795c0.02-0.028,0.04-0.057,0.06-0.085c7.969-6.8,18.532-9.691,29.257-7.799    c8.696,1.533,16.218,5.984,21.505,12.472C152.449,148.357,149.074,149.595,145.746,150.817z M89.759,84.555    c1.875-3.009,3.776-6.061,5.528-9.163c5.271,6.499,8.093,14.771,7.819,23.598c-0.339,10.919-5.354,20.695-13.68,27.107    c-5.853-4.418-9.323-8.85-10.342-13.216C77.185,104.734,83.293,94.933,89.759,84.555z M45.759,145.83    c0.732-3.469,1.476-6.986,2.061-10.501c7.177,4.305,12.657,11.111,15.419,19.5c3.416,10.376,2.048,21.278-3.584,30.151    c-7.01-2.15-11.787-5.127-14.237-8.882C40.846,169.093,43.232,157.793,45.759,145.83z M44.873,220.939    c6.759,8.582,9.202,19.294,6.945,29.559c-7.324,0.378-12.83-0.787-16.417-3.477c-6.692-5.021-8.314-16.454-10.031-28.56    c-0.498-3.511-1.004-7.07-1.656-10.573C31.93,209.479,39.409,214.001,44.873,220.939z M31.052,293.685    c-1.669-3.128-3.361-6.302-5.173-9.37c8.268-1.314,16.839,0.377,24.347,5.027c9.287,5.753,15.246,14.982,16.636,25.4    c-6.753,2.859-12.326,3.647-16.616,2.348C42.24,314.661,36.806,304.472,31.052,293.685z M88.16,377.857    c-8.314,0.456-16.944-7.26-26.043-15.43c-2.638-2.369-5.313-4.771-8.064-7.035c7.316-4.062,15.951-5.403,24.598-3.604    c10.694,2.23,19.451,8.865,24.32,18.18C97.603,374.963,92.637,377.613,88.16,377.857z M144.571,421.992    c-7.691,3.29-18.408-1.026-29.749-5.592c-3.289-1.324-6.624-2.667-9.984-3.853c5.485-6.32,13.142-10.536,21.882-11.799    c10.805-1.565,21.31,1.678,29.071,8.765C152.456,416.043,148.694,420.231,144.571,421.992z M212.676,444.171    c-6.106,5.718-17.647,5.329-29.867,4.919c-3.126-0.105-6.291-0.212-9.439-0.212c-0.421,0-0.841,0.002-1.261,0.007    c2.993-7.814,8.744-14.395,16.525-18.57c9.625-5.166,20.6-5.714,30.316-1.707C218.05,435.885,215.948,441.107,212.676,444.171z     M329.193,449.09c-12.222,0.411-23.763,0.799-29.867-4.919c-3.272-3.064-5.374-8.287-6.274-15.563    c9.716-4.006,20.688-3.46,30.316,1.707c7.78,4.176,13.532,10.755,16.525,18.57C336.33,448.838,332.737,448.97,329.193,449.09z     M397.18,416.4c-11.342,4.565-22.055,8.878-29.749,5.592c-4.124-1.761-7.885-5.947-11.22-12.479    c7.76-7.088,18.249-10.332,29.071-8.765c8.74,1.263,16.396,5.478,21.882,11.799C403.804,413.733,400.469,415.076,397.18,416.4z     M449.885,362.427c-9.097,8.169-17.68,15.871-26.043,15.43c-4.477-0.244-9.443-2.893-14.811-7.889    c4.869-9.314,13.626-15.949,24.321-18.18c8.645-1.8,17.28-0.459,24.596,3.604C455.197,357.656,452.522,360.058,449.885,362.427z     M480.95,293.685c-5.754,10.787-11.188,20.977-19.193,23.405c-4.29,1.301-9.863,0.511-16.616-2.348    c1.39-10.418,7.349-19.647,16.636-25.4c7.508-4.65,16.078-6.346,24.347-5.026C484.311,287.383,482.619,290.557,480.95,293.685z" fill="#182634" data-original="#000000" style="" class=""/>
		<path d="M186.001,196.008v40c0,5.522,4.478,10,10,10h30v70.001c0,5.522,4.478,10,10,10h40c5.522,0,10-4.478,10-10v-70.001h30    c5.522,0,10-4.478,10-10v-40c0-5.522-4.478-10-10-10h-30v-29.999c0-5.522-4.478-10-10-10h-40c-5.522,0-10,4.478-10,10v29.999h-30    C190.478,186.008,186.001,190.486,186.001,196.008z M206.001,206.008h30c5.522,0,10-4.478,10-10v-29.999h20v29.999    c0,5.522,4.478,10,10,10h30v20h-30c-5.522,0-10,4.478-10,10v70.001h-20v-70.001c0-5.522-4.478-10-10-10h-30V206.008z" fill="#182634" data-original="#000000" style="" class=""/>
		<path d="M155.792,72.708c1.682,0,3.387-0.426,4.951-1.319l0.007-0.004c4.796-2.74,6.458-8.847,3.718-13.642    c-2.74-4.796-8.851-6.461-13.646-3.72c-4.796,2.74-6.462,8.849-3.722,13.644C148.945,70.898,152.319,72.708,155.792,72.708z" fill="#182634" data-original="#000000" style="" class=""/>
		<path d="M332.236,109.21c1.869,1.558,4.139,2.317,6.396,2.317c2.864,0,5.709-1.226,7.688-3.599    c3.535-4.242,2.962-10.548-1.281-14.084l-0.006-0.005c-4.241-3.534-10.545-2.96-14.081,1.283    C327.417,99.367,327.993,105.674,332.236,109.21z" fill="#182634" data-original="#000000" style="" class=""/>
	</g>
</g>















</g></svg>
